<svg id="visual" viewBox="0 0 900 600" width="900" height="600" xmlns="http://www.w3.org/2000/svg" xmlns:xlink="http://www.w3.org/1999/xlink" version="1.1"><path d="M0 337L30 320.7C60 304.3 120 271.7 180 250.5C240 229.3 300 219.7 360 222C420 224.3 480 238.7 540 265.3C600 292 660 331 720 326.7C780 322.3 840 274.7 870 250.8L900 227L900 601L870 601C840 601 780 601 720 601C660 601 600 601 540 601C480 601 420 601 360 601C300 601 240 601 180 601C120 601 60 601 30 601L0 601Z" fill="#000000" stroke-linecap="round" stroke-linejoin="miter"></path></svg>